<svg width="177" height="49" viewBox="0 0 177 49" fill="none" xmlns="http://www.w3.org/2000/svg">
<path d="M7.52 16.62H0.4V15.18L7.32 6H9.4V14.98H11.2V16.62H9.4V20H7.52V16.62ZM7.52 14.98V8.2L2.4 14.98H7.52ZM14.107 20V17.8H16.307V20L14.307 23H13.307L14.107 20ZM24.5031 20.2C23.7298 20.2 23.0298 20.0733 22.4031 19.82C21.7765 19.5667 21.2365 19.18 20.7831 18.66C20.3431 18.1267 20.0031 17.46 19.7631 16.66C19.5231 15.86 19.4031 14.9067 19.4031 13.8V13.4C19.4031 12.0267 19.5431 10.86 19.8231 9.9C20.1031 8.92667 20.4831 8.14 20.9631 7.54C21.4431 6.92667 22.0031 6.48667 22.6431 6.22C23.2831 5.94 23.9698 5.8 24.7031 5.8C25.7831 5.8 26.6898 6.06 27.4231 6.58C28.1698 7.08667 28.6631 7.86 28.9031 8.9H27.0231C26.6498 7.95333 25.8765 7.48 24.7031 7.48C24.1965 7.48 23.7298 7.56667 23.3031 7.74C22.8765 7.91333 22.5031 8.2 22.1831 8.6C21.8765 9 21.6298 9.53333 21.4431 10.2C21.2565 10.8667 21.1498 11.7 21.1231 12.7C21.3098 12.38 21.5365 12.1067 21.8031 11.88C22.0698 11.64 22.3565 11.4533 22.6631 11.32C22.9831 11.1733 23.3098 11.0667 23.6431 11C23.9765 10.9333 24.2965 10.9 24.6031 10.9C26.0031 10.9 27.1165 11.2933 27.9431 12.08C28.7831 12.8533 29.2031 13.9667 29.2031 15.42V15.62C29.2031 16.2867 29.0765 16.9 28.8231 17.46C28.5831 18.02 28.2498 18.5067 27.8231 18.92C27.3965 19.32 26.8965 19.6333 26.3231 19.86C25.7498 20.0867 25.1431 20.2 24.5031 20.2ZM24.3431 18.52C25.3165 18.52 26.0565 18.2733 26.5631 17.78C27.0698 17.2867 27.3231 16.5733 27.3231 15.64V15.44C27.3231 14.52 27.0698 13.8133 26.5631 13.32C26.0565 12.8267 25.3165 12.58 24.3431 12.58C23.3698 12.58 22.6298 12.8267 22.1231 13.32C21.6165 13.8133 21.3631 14.52 21.3631 15.44V15.64C21.3631 16.56 21.6165 17.2733 22.1231 17.78C22.6298 18.2733 23.3698 18.52 24.3431 18.52Z" fill="black"/>
<path d="M54 1L56.4697 8.60081H64.4616L57.996 13.2984L60.4656 20.8992L54 16.2016L47.5344 20.8992L50.004 13.2984L43.5384 8.60081H51.5303L54 1Z" fill="#FF833D"/>
<path d="M82 1L84.4697 8.60081H92.4616L85.996 13.2984L88.4656 20.8992L82 16.2016L75.5344 20.8992L78.004 13.2984L71.5384 8.60081H79.5303L82 1Z" fill="#FF833D"/>
<path d="M110 1L112.47 8.60081H120.462L113.996 13.2984L116.466 20.8992L110 16.2016L103.534 20.8992L106.004 13.2984L99.5384 8.60081H107.53L110 1Z" fill="#FF833D"/>
<path d="M138 1L140.47 8.60081H148.462L141.996 13.2984L144.466 20.8992L138 16.2016L131.534 20.8992L134.004 13.2984L127.538 8.60081H135.53L138 1Z" fill="#FF833D"/>
<path d="M166 1L168.47 8.60081H176.462L169.996 13.2984L172.466 20.8992L166 16.2016L159.534 20.8992L162.004 13.2984L155.538 8.60081H163.53L166 1Z" fill="#FF833D"/>
<path d="M1.4 36.2H2.716V40.386H7.924V36.2H9.24V46H7.924V41.534H2.716V46H1.4V36.2ZM13.8707 46.14C13.4601 46.14 13.0961 46.084 12.7787 45.972C12.4707 45.8507 12.2094 45.6873 11.9947 45.482C11.7801 45.2767 11.6167 45.034 11.5047 44.754C11.3927 44.474 11.3367 44.166 11.3367 43.83C11.3367 43.0927 11.5514 42.5607 11.9807 42.234C12.4194 41.9073 13.0447 41.744 13.8567 41.744H16.2647V41.24C16.2647 40.6053 16.1201 40.1667 15.8307 39.924C15.5507 39.6813 15.1261 39.56 14.5567 39.56C14.0247 39.56 13.6374 39.6627 13.3947 39.868C13.1521 40.064 13.0167 40.288 12.9887 40.54H11.7567C11.7754 40.2413 11.8547 39.966 11.9947 39.714C12.1441 39.4527 12.3401 39.2287 12.5827 39.042C12.8347 38.8553 13.1334 38.7107 13.4787 38.608C13.8241 38.496 14.2067 38.44 14.6267 38.44C15.5041 38.44 16.1994 38.65 16.7127 39.07C17.2354 39.4807 17.4967 40.1573 17.4967 41.1V44.11C17.4967 44.502 17.4967 44.8473 17.4967 45.146C17.5061 45.4353 17.5294 45.72 17.5667 46H16.4887C16.4607 45.7853 16.4421 45.5847 16.4327 45.398C16.4234 45.202 16.4187 44.9827 16.4187 44.74C16.2227 45.132 15.9054 45.4633 15.4667 45.734C15.0281 46.0047 14.4961 46.14 13.8707 46.14ZM14.1367 45.02C14.4261 45.02 14.6967 44.9827 14.9487 44.908C15.2101 44.824 15.4387 44.7073 15.6347 44.558C15.8307 44.3993 15.9847 44.208 16.0967 43.984C16.2087 43.76 16.2647 43.4987 16.2647 43.2V42.696H14.0667C13.6094 42.696 13.2501 42.7893 12.9887 42.976C12.7274 43.1533 12.5967 43.438 12.5967 43.83C12.5967 44.1753 12.7181 44.46 12.9607 44.684C13.2127 44.908 13.6047 45.02 14.1367 45.02ZM26.2527 46.14C25.7767 46.14 25.3241 46.0653 24.8947 45.916C24.4654 45.7573 24.0874 45.524 23.7607 45.216C23.4341 44.8987 23.1727 44.502 22.9767 44.026C22.7807 43.55 22.6827 42.9947 22.6827 42.36V42.08C22.6827 41.4827 22.7807 40.9553 22.9767 40.498C23.1727 40.0407 23.4341 39.6627 23.7607 39.364C24.0874 39.056 24.4654 38.8273 24.8947 38.678C25.3241 38.5193 25.7767 38.44 26.2527 38.44C26.7287 38.44 27.1814 38.5193 27.6107 38.678C28.0401 38.8273 28.4181 39.056 28.7447 39.364C29.0714 39.6627 29.3327 40.0407 29.5287 40.498C29.7247 40.9553 29.8227 41.4827 29.8227 42.08V42.36C29.8227 42.9947 29.7247 43.55 29.5287 44.026C29.3327 44.502 29.0714 44.8987 28.7447 45.216C28.4181 45.524 28.0401 45.7573 27.6107 45.916C27.1814 46.0653 26.7287 46.14 26.2527 46.14ZM26.2527 45.02C26.5327 45.02 26.8127 44.9733 27.0927 44.88C27.3727 44.7773 27.6201 44.6233 27.8347 44.418C28.0494 44.2033 28.2221 43.928 28.3527 43.592C28.4927 43.256 28.5627 42.8453 28.5627 42.36V42.08C28.5627 41.632 28.4927 41.2493 28.3527 40.932C28.2221 40.6147 28.0494 40.3533 27.8347 40.148C27.6201 39.9427 27.3727 39.7933 27.0927 39.7C26.8127 39.6067 26.5327 39.56 26.2527 39.56C25.9727 39.56 25.6927 39.6067 25.4127 39.7C25.1327 39.7933 24.8854 39.9427 24.6707 40.148C24.4561 40.3533 24.2787 40.6147 24.1387 40.932C24.0081 41.2493 23.9427 41.632 23.9427 42.08V42.36C23.9427 42.8453 24.0081 43.256 24.1387 43.592C24.2787 43.928 24.4561 44.2033 24.6707 44.418C24.8854 44.6233 25.1327 44.7773 25.4127 44.88C25.6927 44.9733 25.9727 45.02 26.2527 45.02ZM34.4373 46.14C33.9613 46.14 33.5179 46.0653 33.1073 45.916C32.6966 45.7573 32.3419 45.524 32.0433 45.216C31.7446 44.8987 31.5066 44.502 31.3293 44.026C31.1613 43.55 31.0773 42.9947 31.0773 42.36V42.08C31.0773 41.4827 31.1706 40.9553 31.3573 40.498C31.5439 40.0407 31.7913 39.6627 32.0993 39.364C32.4073 39.056 32.7619 38.8273 33.1633 38.678C33.5739 38.5193 33.9986 38.44 34.4373 38.44C34.8759 38.44 35.2679 38.5007 35.6133 38.622C35.9679 38.7433 36.2713 38.9113 36.5233 39.126C36.7846 39.3407 36.9946 39.5927 37.1533 39.882C37.3213 40.1713 37.4426 40.484 37.5173 40.82H36.2573C36.1826 40.6427 36.0939 40.4793 35.9913 40.33C35.8979 40.1713 35.7766 40.036 35.6273 39.924C35.4873 39.812 35.3193 39.7233 35.1233 39.658C34.9273 39.5927 34.6986 39.56 34.4373 39.56C34.1666 39.56 33.9053 39.6113 33.6533 39.714C33.4013 39.8073 33.1773 39.9567 32.9813 40.162C32.7853 40.358 32.6266 40.6147 32.5053 40.932C32.3933 41.2493 32.3373 41.632 32.3373 42.08V42.36C32.3373 42.836 32.3933 43.2467 32.5053 43.592C32.6266 43.928 32.7853 44.2033 32.9813 44.418C33.1773 44.6233 33.4013 44.7773 33.6533 44.88C33.9053 44.9733 34.1666 45.02 34.4373 45.02C34.8946 45.02 35.2773 44.908 35.5853 44.684C35.9026 44.46 36.1266 44.152 36.2573 43.76H37.5173C37.3399 44.4973 36.9759 45.0807 36.4253 45.51C35.8746 45.93 35.2119 46.14 34.4373 46.14ZM39.1962 38.58H40.4282V41.674H44.2642V38.58H45.4962V46H44.2642V42.766H40.4282V46H39.1962V38.58ZM50.8211 46.14C50.3451 46.14 49.8924 46.0653 49.4631 45.916C49.0338 45.7573 48.6558 45.524 48.3291 45.216C48.0024 44.8987 47.7411 44.502 47.5451 44.026C47.3491 43.55 47.2511 42.9947 47.2511 42.36V42.08C47.2511 41.4827 47.3491 40.9553 47.5451 40.498C47.7411 40.0407 48.0024 39.6627 48.3291 39.364C48.6558 39.056 49.0338 38.8273 49.4631 38.678C49.8924 38.5193 50.3451 38.44 50.8211 38.44C51.2971 38.44 51.7498 38.5193 52.1791 38.678C52.6084 38.8273 52.9864 39.056 53.3131 39.364C53.6398 39.6627 53.9011 40.0407 54.0971 40.498C54.2931 40.9553 54.3911 41.4827 54.3911 42.08V42.36C54.3911 42.9947 54.2931 43.55 54.0971 44.026C53.9011 44.502 53.6398 44.8987 53.3131 45.216C52.9864 45.524 52.6084 45.7573 52.1791 45.916C51.7498 46.0653 51.2971 46.14 50.8211 46.14ZM50.8211 45.02C51.1011 45.02 51.3811 44.9733 51.6611 44.88C51.9411 44.7773 52.1884 44.6233 52.4031 44.418C52.6178 44.2033 52.7904 43.928 52.9211 43.592C53.0611 43.256 53.1311 42.8453 53.1311 42.36V42.08C53.1311 41.632 53.0611 41.2493 52.9211 40.932C52.7904 40.6147 52.6178 40.3533 52.4031 40.148C52.1884 39.9427 51.9411 39.7933 51.6611 39.7C51.3811 39.6067 51.1011 39.56 50.8211 39.56C50.5411 39.56 50.2611 39.6067 49.9811 39.7C49.7011 39.7933 49.4538 39.9427 49.2391 40.148C49.0244 40.3533 48.8471 40.6147 48.7071 40.932C48.5764 41.2493 48.5111 41.632 48.5111 42.08V42.36C48.5111 42.8453 48.5764 43.256 48.7071 43.592C48.8471 43.928 49.0244 44.2033 49.2391 44.418C49.4538 44.6233 49.7011 44.7773 49.9811 44.88C50.2611 44.9733 50.5411 45.02 50.8211 45.02ZM56.1356 38.58H59.3556C60.2703 38.58 60.9423 38.7713 61.3716 39.154C61.801 39.5273 62.0156 40.0127 62.0156 40.61C62.0156 40.7687 61.9876 40.932 61.9316 41.1C61.8756 41.2587 61.7963 41.408 61.6936 41.548C61.6003 41.688 61.4836 41.8093 61.3436 41.912C61.213 42.0147 61.0636 42.094 60.8956 42.15C61.353 42.262 61.6983 42.4767 61.9316 42.794C62.1743 43.102 62.2956 43.466 62.2956 43.886C62.2956 44.53 62.081 45.0433 61.6516 45.426C61.2223 45.8087 60.5503 46 59.6356 46H56.1356V38.58ZM59.6356 44.908C60.1583 44.908 60.527 44.8147 60.7416 44.628C60.9563 44.4413 61.0636 44.1753 61.0636 43.83C61.0636 43.4753 60.9563 43.2047 60.7416 43.018C60.527 42.822 60.1583 42.724 59.6356 42.724H57.3676V44.908H59.6356ZM59.3556 41.716C59.8876 41.716 60.2563 41.6227 60.4616 41.436C60.6763 41.2493 60.7836 40.9927 60.7836 40.666C60.7836 40.358 60.6763 40.1153 60.4616 39.938C60.2563 39.7607 59.8876 39.672 59.3556 39.672H57.3676V41.716H59.3556ZM66.1656 46.14C65.755 46.14 65.391 46.084 65.0736 45.972C64.7656 45.8507 64.5043 45.6873 64.2896 45.482C64.075 45.2767 63.9116 45.034 63.7996 44.754C63.6876 44.474 63.6316 44.166 63.6316 43.83C63.6316 43.0927 63.8463 42.5607 64.2756 42.234C64.7143 41.9073 65.3396 41.744 66.1516 41.744H68.5596V41.24C68.5596 40.6053 68.415 40.1667 68.1256 39.924C67.8456 39.6813 67.421 39.56 66.8516 39.56C66.3196 39.56 65.9323 39.6627 65.6896 39.868C65.447 40.064 65.3116 40.288 65.2836 40.54H64.0516C64.0703 40.2413 64.1496 39.966 64.2896 39.714C64.439 39.4527 64.635 39.2287 64.8776 39.042C65.1296 38.8553 65.4283 38.7107 65.7736 38.608C66.119 38.496 66.5016 38.44 66.9216 38.44C67.799 38.44 68.4943 38.65 69.0076 39.07C69.5303 39.4807 69.7916 40.1573 69.7916 41.1V44.11C69.7916 44.502 69.7916 44.8473 69.7916 45.146C69.801 45.4353 69.8243 45.72 69.8616 46H68.7836C68.7556 45.7853 68.737 45.5847 68.7276 45.398C68.7183 45.202 68.7136 44.9827 68.7136 44.74C68.5176 45.132 68.2003 45.4633 67.7616 45.734C67.323 46.0047 66.791 46.14 66.1656 46.14ZM66.4316 45.02C66.721 45.02 66.9916 44.9827 67.2436 44.908C67.505 44.824 67.7336 44.7073 67.9296 44.558C68.1256 44.3993 68.2796 44.208 68.3916 43.984C68.5036 43.76 68.5596 43.4987 68.5596 43.2V42.696H66.3616C65.9043 42.696 65.545 42.7893 65.2836 42.976C65.0223 43.1533 64.8916 43.438 64.8916 43.83C64.8916 44.1753 65.013 44.46 65.2556 44.684C65.5076 44.908 65.8996 45.02 66.4316 45.02ZM71.9677 38.58H73.1997V41.674H77.0357V38.58H78.2677V46H77.0357V42.766H73.1997V46H71.9677V38.58ZM80.5126 38.58H81.7446V44.18L85.5806 38.58H86.8126V46H85.5806V40.4L81.7446 46H80.5126V38.58ZM89.0575 38.58H90.2895V44.18L94.1255 38.58H95.3575V46H94.1255V40.4L90.2895 46H89.0575V38.58ZM104.252 46.14C103.674 46.14 103.165 46.07 102.726 45.93C102.288 45.79 101.919 45.5987 101.62 45.356C101.331 45.1133 101.112 44.8287 100.962 44.502C100.822 44.166 100.752 43.802 100.752 43.41C100.752 42.85 100.93 42.3507 101.284 41.912C101.639 41.464 102.162 41.1467 102.852 40.96C102.6 40.876 102.362 40.764 102.138 40.624C101.924 40.4747 101.732 40.302 101.564 40.106C101.396 39.91 101.266 39.6907 101.172 39.448C101.079 39.196 101.032 38.93 101.032 38.65C101.032 38.286 101.102 37.9453 101.242 37.628C101.382 37.3107 101.588 37.04 101.858 36.816C102.129 36.5827 102.465 36.4007 102.866 36.27C103.268 36.13 103.73 36.06 104.252 36.06C104.775 36.06 105.237 36.13 105.638 36.27C106.04 36.4007 106.376 36.5827 106.646 36.816C106.917 37.04 107.122 37.3107 107.262 37.628C107.402 37.9453 107.472 38.286 107.472 38.65C107.472 39.21 107.295 39.686 106.94 40.078C106.595 40.47 106.166 40.764 105.652 40.96C106.352 41.1933 106.875 41.5013 107.22 41.884C107.575 42.2667 107.752 42.7753 107.752 43.41C107.752 43.802 107.678 44.166 107.528 44.502C107.388 44.8287 107.169 45.1133 106.87 45.356C106.581 45.5987 106.217 45.79 105.778 45.93C105.34 46.07 104.831 46.14 104.252 46.14ZM104.252 44.964C104.654 44.964 104.994 44.922 105.274 44.838C105.554 44.7447 105.778 44.628 105.946 44.488C106.124 44.3387 106.25 44.166 106.324 43.97C106.399 43.7647 106.436 43.55 106.436 43.326C106.436 43.0647 106.38 42.8267 106.268 42.612C106.166 42.3973 106.016 42.2107 105.82 42.052C105.624 41.884 105.391 41.7533 105.12 41.66C104.859 41.5573 104.57 41.4873 104.252 41.45C103.935 41.4873 103.641 41.5573 103.37 41.66C103.109 41.7533 102.88 41.8793 102.684 42.038C102.488 42.1967 102.334 42.388 102.222 42.612C102.12 42.8267 102.068 43.0647 102.068 43.326C102.068 43.55 102.106 43.7647 102.18 43.97C102.255 44.166 102.376 44.3387 102.544 44.488C102.722 44.628 102.95 44.7447 103.23 44.838C103.51 44.922 103.851 44.964 104.252 44.964ZM104.252 40.47C104.812 40.3953 105.27 40.218 105.624 39.938C105.979 39.6487 106.156 39.2427 106.156 38.72C106.156 38.244 105.998 37.88 105.68 37.628C105.372 37.3667 104.896 37.236 104.252 37.236C103.599 37.236 103.118 37.3667 102.81 37.628C102.502 37.88 102.348 38.244 102.348 38.72C102.348 39.2427 102.526 39.6487 102.88 39.938C103.235 40.218 103.692 40.3953 104.252 40.47ZM112.797 46.14C112.219 46.14 111.71 46.07 111.271 45.93C110.833 45.79 110.464 45.5987 110.165 45.356C109.876 45.1133 109.657 44.8287 109.507 44.502C109.367 44.166 109.297 43.802 109.297 43.41C109.297 42.85 109.475 42.3507 109.829 41.912C110.184 41.464 110.707 41.1467 111.397 40.96C111.145 40.876 110.907 40.764 110.683 40.624C110.469 40.4747 110.277 40.302 110.109 40.106C109.941 39.91 109.811 39.6907 109.717 39.448C109.624 39.196 109.577 38.93 109.577 38.65C109.577 38.286 109.647 37.9453 109.787 37.628C109.927 37.3107 110.133 37.04 110.403 36.816C110.674 36.5827 111.01 36.4007 111.411 36.27C111.813 36.13 112.275 36.06 112.797 36.06C113.32 36.06 113.782 36.13 114.183 36.27C114.585 36.4007 114.921 36.5827 115.191 36.816C115.462 37.04 115.667 37.3107 115.807 37.628C115.947 37.9453 116.017 38.286 116.017 38.65C116.017 39.21 115.84 39.686 115.485 40.078C115.14 40.47 114.711 40.764 114.197 40.96C114.897 41.1933 115.42 41.5013 115.765 41.884C116.12 42.2667 116.297 42.7753 116.297 43.41C116.297 43.802 116.223 44.166 116.073 44.502C115.933 44.8287 115.714 45.1133 115.415 45.356C115.126 45.5987 114.762 45.79 114.323 45.93C113.885 46.07 113.376 46.14 112.797 46.14ZM112.797 44.964C113.199 44.964 113.539 44.922 113.819 44.838C114.099 44.7447 114.323 44.628 114.491 44.488C114.669 44.3387 114.795 44.166 114.869 43.97C114.944 43.7647 114.981 43.55 114.981 43.326C114.981 43.0647 114.925 42.8267 114.813 42.612C114.711 42.3973 114.561 42.2107 114.365 42.052C114.169 41.884 113.936 41.7533 113.665 41.66C113.404 41.5573 113.115 41.4873 112.797 41.45C112.48 41.4873 112.186 41.5573 111.915 41.66C111.654 41.7533 111.425 41.8793 111.229 42.038C111.033 42.1967 110.879 42.388 110.767 42.612C110.665 42.8267 110.613 43.0647 110.613 43.326C110.613 43.55 110.651 43.7647 110.725 43.97C110.8 44.166 110.921 44.3387 111.089 44.488C111.267 44.628 111.495 44.7447 111.775 44.838C112.055 44.922 112.396 44.964 112.797 44.964ZM112.797 40.47C113.357 40.3953 113.815 40.218 114.169 39.938C114.524 39.6487 114.701 39.2427 114.701 38.72C114.701 38.244 114.543 37.88 114.225 37.628C113.917 37.3667 113.441 37.236 112.797 37.236C112.144 37.236 111.663 37.3667 111.355 37.628C111.047 37.88 110.893 38.244 110.893 38.72C110.893 39.2427 111.071 39.6487 111.425 39.938C111.78 40.218 112.237 40.3953 112.797 40.47ZM124.772 46.14C124.296 46.14 123.844 46.0653 123.414 45.916C122.985 45.7573 122.607 45.524 122.28 45.216C121.954 44.8987 121.692 44.502 121.496 44.026C121.3 43.55 121.202 42.9947 121.202 42.36V42.08C121.202 41.4827 121.3 40.9553 121.496 40.498C121.692 40.0407 121.954 39.6627 122.28 39.364C122.607 39.056 122.985 38.8273 123.414 38.678C123.844 38.5193 124.296 38.44 124.772 38.44C125.248 38.44 125.701 38.5193 126.13 38.678C126.56 38.8273 126.938 39.056 127.264 39.364C127.591 39.6627 127.852 40.0407 128.048 40.498C128.244 40.9553 128.342 41.4827 128.342 42.08V42.36C128.342 42.9947 128.244 43.55 128.048 44.026C127.852 44.502 127.591 44.8987 127.264 45.216C126.938 45.524 126.56 45.7573 126.13 45.916C125.701 46.0653 125.248 46.14 124.772 46.14ZM124.772 45.02C125.052 45.02 125.332 44.9733 125.612 44.88C125.892 44.7773 126.14 44.6233 126.354 44.418C126.569 44.2033 126.742 43.928 126.872 43.592C127.012 43.256 127.082 42.8453 127.082 42.36V42.08C127.082 41.632 127.012 41.2493 126.872 40.932C126.742 40.6147 126.569 40.3533 126.354 40.148C126.14 39.9427 125.892 39.7933 125.612 39.7C125.332 39.6067 125.052 39.56 124.772 39.56C124.492 39.56 124.212 39.6067 123.932 39.7C123.652 39.7933 123.405 39.9427 123.19 40.148C122.976 40.3533 122.798 40.6147 122.658 40.932C122.528 41.2493 122.462 41.632 122.462 42.08V42.36C122.462 42.8453 122.528 43.256 122.658 43.592C122.798 43.928 122.976 44.2033 123.19 44.418C123.405 44.6233 123.652 44.7773 123.932 44.88C124.212 44.9733 124.492 45.02 124.772 45.02ZM136.121 46H130.087V38.58H131.319V44.908H134.875V38.58H136.107V44.908H137.297V47.75H136.121V46ZM141.848 46.14C141.372 46.14 140.92 46.0653 140.49 45.916C140.061 45.7667 139.683 45.538 139.356 45.23C139.03 44.9127 138.768 44.516 138.572 44.04C138.376 43.564 138.278 43.004 138.278 42.36V42.08C138.278 41.464 138.372 40.932 138.558 40.484C138.745 40.0267 138.992 39.6487 139.3 39.35C139.618 39.042 139.982 38.8133 140.392 38.664C140.812 38.5147 141.251 38.44 141.708 38.44C142.8 38.44 143.645 38.7387 144.242 39.336C144.84 39.9333 145.138 40.778 145.138 41.87V42.654H139.51C139.51 43.0927 139.58 43.4613 139.72 43.76C139.86 44.0587 140.042 44.3013 140.266 44.488C140.49 44.6747 140.738 44.81 141.008 44.894C141.288 44.978 141.568 45.02 141.848 45.02C142.408 45.02 142.838 44.9267 143.136 44.74C143.444 44.5533 143.664 44.2967 143.794 43.97H144.998C144.924 44.3247 144.788 44.6373 144.592 44.908C144.406 45.1787 144.172 45.4073 143.892 45.594C143.622 45.7713 143.309 45.9067 142.954 46C142.609 46.0933 142.24 46.14 141.848 46.14ZM141.778 39.56C141.489 39.56 141.209 39.602 140.938 39.686C140.668 39.7607 140.425 39.8867 140.21 40.064C140.005 40.232 139.837 40.4467 139.706 40.708C139.576 40.9693 139.51 41.282 139.51 41.646H143.976C143.967 41.2633 143.902 40.9413 143.78 40.68C143.668 40.4093 143.514 40.1947 143.318 40.036C143.122 39.868 142.889 39.7467 142.618 39.672C142.357 39.5973 142.077 39.56 141.778 39.56ZM146.89 38.58H148.122V41.674H151.958V38.58H153.19V46H151.958V42.766H148.122V46H146.89V38.58ZM158.514 46.14C158.038 46.14 157.586 46.0653 157.156 45.916C156.727 45.7573 156.349 45.524 156.022 45.216C155.696 44.8987 155.434 44.502 155.238 44.026C155.042 43.55 154.944 42.9947 154.944 42.36V42.08C154.944 41.4827 155.042 40.9553 155.238 40.498C155.434 40.0407 155.696 39.6627 156.022 39.364C156.349 39.056 156.727 38.8273 157.156 38.678C157.586 38.5193 158.038 38.44 158.514 38.44C158.99 38.44 159.443 38.5193 159.872 38.678C160.302 38.8273 160.68 39.056 161.006 39.364C161.333 39.6627 161.594 40.0407 161.79 40.498C161.986 40.9553 162.084 41.4827 162.084 42.08V42.36C162.084 42.9947 161.986 43.55 161.79 44.026C161.594 44.502 161.333 44.8987 161.006 45.216C160.68 45.524 160.302 45.7573 159.872 45.916C159.443 46.0653 158.99 46.14 158.514 46.14ZM158.514 45.02C158.794 45.02 159.074 44.9733 159.354 44.88C159.634 44.7773 159.882 44.6233 160.096 44.418C160.311 44.2033 160.484 43.928 160.614 43.592C160.754 43.256 160.824 42.8453 160.824 42.36V42.08C160.824 41.632 160.754 41.2493 160.614 40.932C160.484 40.6147 160.311 40.3533 160.096 40.148C159.882 39.9427 159.634 39.7933 159.354 39.7C159.074 39.6067 158.794 39.56 158.514 39.56C158.234 39.56 157.954 39.6067 157.674 39.7C157.394 39.7933 157.147 39.9427 156.932 40.148C156.718 40.3533 156.54 40.6147 156.4 40.932C156.27 41.2493 156.204 41.632 156.204 42.08V42.36C156.204 42.8453 156.27 43.256 156.4 43.592C156.54 43.928 156.718 44.2033 156.932 44.418C157.147 44.6233 157.394 44.7773 157.674 44.88C157.954 44.9733 158.234 45.02 158.514 45.02ZM163.829 38.58H165.061V41.688H166.041L168.813 38.58H170.269L167.049 42.136L170.409 46H168.841L166.041 42.752H165.061V46H163.829V38.58Z" fill="#121212" fill-opacity="0.72"/>
</svg>
