<svg width="21" height="20" viewBox="0 0 21 20" fill="none" xmlns="http://www.w3.org/2000/svg">
<path d="M17.4602 16.6749H4.4937C3.99565 16.6662 3.52125 16.4604 3.17453 16.1028C2.82781 15.7451 2.63704 15.2647 2.64372 14.7666V5.24157C2.63704 4.74348 2.82781 4.26306 3.17453 3.90541C3.52125 3.54775 3.99565 3.34202 4.4937 3.33325H17.4602C17.9583 3.34202 18.4327 3.54775 18.7794 3.90541C19.1261 4.26306 19.3171 4.74348 19.3104 5.24157V14.7666C19.3171 15.2647 19.1261 15.7451 18.7794 16.1028C18.4327 16.4604 17.9583 16.6662 17.4602 16.6749V16.6749Z" stroke="#007AFF" stroke-width="2" stroke-miterlimit="10"/>
<path d="M2.64404 6.66675L10.9774 10.0001L19.3107 6.66675" stroke="#007AFF" stroke-width="2" stroke-linejoin="round"/>
</svg>
