<svg width="21" height="20" viewBox="0 0 21 20" fill="none" xmlns="http://www.w3.org/2000/svg">
<path d="M9.54118 11.3396C10.1185 11.9404 10.7397 12.4974 11.3995 13.0063C11.6907 13.2297 12.0436 13.3583 12.4102 13.3747C12.7769 13.3911 13.1397 13.2944 13.4497 13.0979L13.8912 12.823C14.21 12.605 14.5897 12.4932 14.9757 12.5037C15.3618 12.5142 15.7347 12.6463 16.0412 12.8812L18.1079 14.5479C18.2077 14.6263 18.2899 14.725 18.349 14.8374C18.408 14.9498 18.4426 15.0734 18.4505 15.2001C18.4583 15.3268 18.4392 15.4538 18.3945 15.5726C18.3499 15.6914 18.2807 15.7995 18.1913 15.8896V15.8896C17.3953 16.6877 16.3697 17.2171 15.2581 17.4039C14.1465 17.5906 13.0044 17.4254 11.9913 16.9313C10.2726 16.085 8.70668 14.9585 7.35795 13.598C5.99706 12.2526 4.87045 10.6894 4.02461 8.97291C3.53126 7.95881 3.36562 6.81636 3.55078 5.70392C3.73594 4.59148 4.2627 3.56424 5.05794 2.76462V2.76462C5.14753 2.67475 5.25498 2.6048 5.37349 2.55944C5.492 2.51408 5.61891 2.49432 5.7456 2.5014C5.8723 2.50849 5.99605 2.54225 6.10876 2.60054C6.22148 2.65883 6.32048 2.74029 6.39949 2.83959L8.06616 4.91458C8.29662 5.20648 8.43163 5.56235 8.45251 5.93367C8.47339 6.30499 8.37923 6.67374 8.18294 6.98963L7.85783 7.49795C7.66241 7.80786 7.56585 8.16982 7.58073 8.5359C7.59561 8.90198 7.72131 9.25488 7.94124 9.54791C8.43938 10.2067 8.98229 10.8305 9.5662 11.4146L9.54118 11.3396Z" stroke="#007AFF" stroke-width="2" stroke-linejoin="round"/>
</svg>
