<svg width="18" height="18" viewBox="0 0 18 18" fill="none" xmlns="http://www.w3.org/2000/svg">
<g opacity="0.3">
<path d="M1.5 6L1.14645 5.64645L0.792893 6L1.14645 6.35355L1.5 6ZM15.75 6.5C16.0261 6.5 16.25 6.27614 16.25 6C16.25 5.72386 16.0261 5.5 15.75 5.5L15.75 6.5ZM4.14645 2.64645L1.14645 5.64645L1.85355 6.35355L4.85355 3.35355L4.14645 2.64645ZM1.14645 6.35355L4.14645 9.35355L4.85355 8.64645L1.85355 5.64645L1.14645 6.35355ZM1.5 6.5L15.75 6.5L15.75 5.5L1.5 5.5L1.5 6.5Z" fill="#121212"/>
<path d="M16.5 12L16.8536 11.6464L17.2071 12L16.8536 12.3536L16.5 12ZM9.75 12.5C9.47386 12.5 9.25 12.2761 9.25 12C9.25 11.7239 9.47386 11.5 9.75 11.5L9.75 12.5ZM13.8536 8.64645L16.8536 11.6464L16.1464 12.3536L13.1464 9.35355L13.8536 8.64645ZM16.8536 12.3536L13.8536 15.3536L13.1464 14.6464L16.1464 11.6464L16.8536 12.3536ZM16.5 12.5L9.75 12.5L9.75 11.5L16.5 11.5L16.5 12.5Z" fill="#121212"/>
</g>
</svg>
