<svg width="18" height="18" viewBox="0 0 18 18" fill="none" xmlns="http://www.w3.org/2000/svg">
<g opacity="0.3">
<path d="M6 16.5L5.64645 16.8536L6 17.2071L6.35355 16.8536L6 16.5ZM6.5 2.25C6.5 1.97386 6.27614 1.75 6 1.75C5.72386 1.75 5.5 1.97386 5.5 2.25L6.5 2.25ZM2.64645 13.8536L5.64645 16.8536L6.35355 16.1464L3.35355 13.1464L2.64645 13.8536ZM6.35355 16.8536L9.35355 13.8536L8.64645 13.1464L5.64645 16.1464L6.35355 16.8536ZM6.5 16.5L6.5 2.25L5.5 2.25L5.5 16.5L6.5 16.5Z" fill="#121212"/>
<path d="M12 1.5L11.6464 1.14645L12 0.792893L12.3536 1.14645L12 1.5ZM12.5 8.25C12.5 8.52614 12.2761 8.75 12 8.75C11.7239 8.75 11.5 8.52614 11.5 8.25L12.5 8.25ZM8.64645 4.14645L11.6464 1.14645L12.3536 1.85355L9.35355 4.85355L8.64645 4.14645ZM12.3536 1.14645L15.3536 4.14645L14.6464 4.85355L11.6464 1.85355L12.3536 1.14645ZM12.5 1.5L12.5 8.25L11.5 8.25L11.5 1.5L12.5 1.5Z" fill="#121212"/>
</g>
</svg>
